<svg width="654.36875px" height="117.2px"
  xmlns="http://www.w3.org/2000/svg" viewBox="-77.18437499999999 16.4 654.36875 117.2" style="background: transparent;" preserveAspectRatio="xMidYMid">
  <defs>
    <filter id="editing-extrude-glow">
      <feFlood flood-color="#D4AF37" result="flood-1"></feFlood>
      <feMorphology operator="erode" radius="1" in="SourceAlpha" result="erode"></feMorphology>
      <feComposite operator="in" in="flood-1" in2="erode" result="comp1"></feComposite>
      <feConvolveMatrix order="4,4" divisor="1" in="comp1" result="convolve" kernelMatrix="0 0 0 0 0 0 0 0 1 1 1 1 0 0 0 0"></feConvolveMatrix>
      <feOffset dx="-4" dy="0" in="convolve" result="extrude"></feOffset>
      <feComposite operator="in" in="flood-1" in2="extrude" result="comp-extrude"></feComposite>
      <feFlood flood-color="#1b2124" result="flood-2"></feFlood>
      <feComposite operator="in" in="flood-2" in2="SourceAlpha" result="comp2"></feComposite>
      <feMorphology operator="dilate" radius="1" in="comp2" result="dilate"></feMorphology>
      <feOffset dx="-6" dy="0" in="dilate" result="offset"></feOffset>
      <feGaussianBlur in="offset" stdDeviation="5.8" result="blur"></feGaussianBlur>
      <feComponentTransfer in="blur" result="shadow">
        <feFuncA type="linear" slope="0.8" intercept="-0.2"></feFuncA>
      </feComponentTransfer>
      <feMerge>
        <feMergeNode in="shadow"></feMergeNode>
        <feMergeNode in="comp-extrude"></feMergeNode>
        <feMergeNode in="SourceGraphic"></feMergeNode>
      </feMerge>
    </filter>
  </defs>
  <g filter="url(#editing-extrude-glow)">
    <g transform="translate(-70.0799777507782, 105.35999870300293)">
      <path d="M29.72-13.38L29.72-13.38L29.72-13.38Q30.16-13.38 35.78-25.52L35.78-25.52L35.78-25.52Q41.41-37.66 42.72-39.66L42.72-39.66L42.72-39.66Q44.03-41.66 45.75-42.36L45.75-42.36L45.75-42.36Q47.47-43.06 51.23-43.06L51.23-43.06L51.23-43.06Q55-43.06 55-41.31L55-41.31L54.25-40.38L53.28-39.34L53.28-39.34Q52.34-38.13 51.95-36.52L51.95-36.52L51.95-36.52Q51.56-34.91 51.56-31.22L51.56-31.22L51.56-31.22Q51.56-15.53 52.38-8.34L52.38-8.34L52.38-8.34Q52.69-5.53 54.41-3.92L54.41-3.92L54.41-3.92Q56.13-2.31 56.13-1.78L56.13-1.78L55.34-1.22L55.34-1.22Q53.84-0.53 49.44-0.53L49.44-0.53L49.44-0.53Q45.03-0.53 43.91-1.69L43.91-1.69L43.59-2.38L43.59-2.38Q43.59-3.28 44.28-6.11L44.28-6.11L44.28-6.11Q44.97-8.94 44.97-11.75L44.97-11.75L44.97-11.75Q44.97-32.25 43.66-32.25L43.66-32.25L43.66-32.25Q43-32.25 37.69-19.56L37.69-19.56L37.69-19.56Q32.38-6.88 31.17-4.67L31.17-4.67L31.17-4.67Q29.97-2.47 28-2.47L28-2.47L28-2.47Q26.63-2.47 20.48-17.48L20.48-17.48L20.48-17.48Q14.34-32.50 13.28-32.50L13.28-32.50L13.28-32.50Q12.41-32.50 12.41-17.16L12.41-17.16L12.41-17.16Q12.41-10.34 12.63-8.78L12.63-8.78L12.63-8.78Q12.84-7.22 13.36-5.03L13.36-5.03L13.36-5.03Q13.88-2.84 13.88-2.13L13.88-2.13L13.88-2.13Q13.88-1.41 12.91-0.94L12.91-0.94L12.91-0.94Q11.94-0.47 10.41-0.47L10.41-0.47L8.69-0.47L8.69-0.47Q3.53-0.47 3.53-1.78L3.53-1.78L3.53-1.78Q3.53-2.44 5.30-3.95L5.30-3.95L5.30-3.95Q7.06-5.47 7.36-6.58L7.36-6.58L7.36-6.58Q7.66-7.69 8.16-17.83L8.16-17.83L8.16-17.83Q8.66-27.97 8.66-31.59L8.66-31.59L8.66-31.59Q8.66-35.22 8.22-36.64L8.22-36.64L8.22-36.64Q7.78-38.06 6.20-39.63L6.20-39.63L6.20-39.63Q4.63-41.19 4.63-42L4.63-42L4.63-42Q4.63-43 10.41-43L10.41-43L10.41-43Q12.63-43 14.25-42.39L14.25-42.39L14.25-42.39Q15.88-41.78 17.45-39.48L17.45-39.48L17.45-39.48Q19.03-37.19 24.06-25.28L24.06-25.28L24.06-25.28Q29.09-13.38 29.72-13.38ZM78.81-14.47L78.81-14.47L78.28-14.47L78.28-14.47Q74.19-14.47 71.45-12.64L71.45-12.64L71.45-12.64Q68.72-10.81 68.72-8.09L68.72-8.09L68.72-7.47L68.72-7.47Q68.72-5.88 69.70-4.61L69.70-4.61L69.70-4.61Q70.69-3.34 72.25-3.34L72.25-3.34L72.63-3.28L73.56-3.28L73.56-3.28Q76.81-3.28 78.88-5.94L78.88-5.94L78.88-5.94Q79.78-7.09 79.78-10.69L79.78-10.69L79.78-10.69Q79.78-10.97 79.78-11.25L79.78-11.25L79.81-12L79.81-12.75L79.81-12.75Q79.81-14.47 78.81-14.47ZM63.63-24.56L63.63-24.56L63.63-24.56Q63.63-26.88 67.30-28.70L67.30-28.70L67.30-28.70Q70.97-30.53 74.91-30.53L74.91-30.53L74.91-30.53Q75.03-30.53 75.16-30.53L75.16-30.53L75.16-30.53Q78.91-30.53 81.16-29.63L81.16-29.63L81.16-29.63Q85.72-27.81 86.38-21.94L86.38-21.94L86.38-21.94Q86.44-21.34 86.44-14.08L86.44-14.08L86.44-14.08Q86.44-6.81 86.83-5.56L86.83-5.56L86.83-5.56Q87.22-4.31 88.95-3.72L88.95-3.72L88.95-3.72Q90.69-3.13 90.69-2.59L90.69-2.59L90.69-2.59Q90.69-1.47 89.56-0.88L89.56-0.88L89.56-0.88Q87.31 0.31 85.14 0.31L85.14 0.31L85.14 0.31Q82.97 0.31 81.91-0.69L81.91-0.69L81.91-0.69Q80-2.47 79.88-2.47L79.88-2.47L79.88-2.47Q79.75-2.47 76.34-0.89L76.34-0.89L76.34-0.89Q72.94 0.69 70.38 0.69L70.38 0.69L70.38 0.69Q66.53 0.69 64.34-1.44L64.34-1.44L64.34-1.44Q62.16-3.56 62.16-6.59L62.16-6.59L62.16-7.38L62.16-7.38Q62.16-10.63 64.97-13.09L64.97-13.09L64.97-13.09Q67.78-15.56 75.09-16.94L75.09-16.94L75.09-16.94Q77.75-17.44 78.44-17.88L78.44-17.88L78.44-17.88Q79.81-18.75 79.81-21.44L79.81-21.44L79.81-21.44Q79.81-24.13 78.38-25.56L78.38-25.56L78.38-25.56Q76.94-27 74.53-27L74.53-27L74.53-27Q72.13-27 69.89-24.20L69.89-24.20L69.89-24.20Q67.66-21.41 65.81-21.41L65.81-21.41L65.81-21.41Q63.63-21.41 63.63-24.56ZM108.56-28.53L108.56-28.53L107.75-28.53L107.75-28.53Q106.09-28.53 104.53-26.63L104.53-26.63L104.53-26.63Q102.97-24.72 102.97-22.19L102.97-22.19L102.91-21.69L102.88-20.91L102.88-20.09L102.91-19.84L102.91-19.84Q102.91-16.59 104.31-14.59L104.31-14.59L104.31-14.59Q105.72-12.59 108.50-12.59L108.50-12.59L108.72-12.59L108.72-12.59Q110.88-12.59 112.41-14.28L112.41-14.28L112.41-14.28Q113.94-15.97 113.94-18.75L113.94-18.75L113.94-19.97L113.94-19.97Q113.84-20.72 113.84-21.19L113.84-21.19L113.84-21.19Q113.84-24.16 112.20-26.34L112.20-26.34L112.20-26.34Q110.56-28.53 108.56-28.53ZM107.31-0.75L105.78-0.75L105.78-0.75Q103.59-0.75 102.06 0.78L102.06 0.78L102.06 0.78Q100.53 2.31 100.53 4.63L100.53 4.63L100.53 4.88L100.53 4.88Q100.53 7.53 102.63 9.06L102.63 9.06L102.63 9.06Q104.72 10.59 108.34 10.59L108.34 10.59L109.16 10.59L109.16 10.59Q113.53 10.59 116.19 8.59L116.19 8.59L116.19 8.59Q118.84 6.59 118.84 3.91L118.84 3.91L118.81 3.66L118.81 3.66Q118.81 1.88 117.34 0.80L117.34 0.80L117.34 0.80Q115.88-0.28 113.88-0.28L113.88-0.28L113.88-0.28Q112.63-0.44 112.06-0.44L112.06-0.44L111-0.53L110.47-0.53L108.59-0.66L107.31-0.75ZM125-28.88L125-28.88L125-28.88Q125-27.09 122.75-26.61L122.75-26.61L122.75-26.61Q120.50-26.13 120.50-24.75L120.50-24.75L120.59-24.09L120.72-23.34L120.88-22.53L120.88-22.53Q121.03-21.50 121.03-19.63L121.03-19.63L121.03-19.63Q121.03-17.75 119.97-15.75L119.97-15.75L119.97-15.75Q117-10.22 108.53-9.69L108.53-9.69L108.53-9.69Q105.81-9.50 105.06-9.22L105.06-9.22L105.06-9.22Q103.44-8.59 103.44-7.13L103.44-7.13L103.44-7.13Q103.44-5.66 105.84-5.06L105.84-5.06L105.84-5.06Q106.19-4.97 112.06-4.47L112.06-4.47L112.06-4.47Q117.94-4 119.91-3L119.91-3L119.91-3Q124.06-0.94 124.06 2.97L124.06 2.97L124.06 2.97Q124.06 8.09 119.48 11.31L119.48 11.31L119.48 11.31Q114.91 14.53 107.50 14.53L107.50 14.53L107.50 14.53Q102.28 14.53 98.81 12.53L98.81 12.53L98.81 12.53Q97.22 11.63 96.23 10.17L96.23 10.17L96.23 10.17Q95.25 8.72 95.25 7.16L95.25 7.16L95.25 7.16Q95.25 4.38 96.91 2.53L96.91 2.53L96.91 2.53Q99.56-0.41 99.56-0.59L99.56-0.59L99.56-0.59Q99.56-0.78 98.41-2.25L98.41-2.25L98.41-2.25Q97.25-3.72 97.25-5.31L97.25-5.31L97.25-5.31Q97.25-6.91 98.77-8.77L98.77-8.77L98.77-8.77Q100.28-10.63 100.28-10.84L100.28-10.84L100.28-10.84Q100.28-11.06 98.41-14.05L98.41-14.05L98.41-14.05Q96.53-17.03 96.53-19.72L96.53-19.72L96.53-19.72Q96.53-22.41 97.69-24.50L97.69-24.50L97.69-24.50Q100.97-30.47 109.91-30.47L109.91-30.47L110.81-30.47L115.16-30.19L116.75-30.13L116.75-30.13Q117.56-30.09 118.41-30.09L118.41-30.09L121.72-30.31L121.72-30.31Q125-30.31 125-28.88ZM136.13-0.25L134.19-0.25L134.19-0.25Q129.78-0.25 129.78-1.50L129.78-1.50L129.78-1.50Q129.78-2.53 130.94-3.19L130.94-3.19L130.94-3.19Q133.03-4.38 133.38-5.33L133.38-5.33L133.38-5.33Q133.72-6.28 133.72-14.36L133.72-14.36L133.72-14.36Q133.72-22.44 133.23-23.83L133.23-23.83L133.23-23.83Q132.75-25.22 131.47-26.13L131.47-26.13L131.47-26.13Q130.19-27.03 130.19-27.59L130.19-27.59L130.19-27.59Q130.19-28.16 131.03-28.66L131.03-28.66L131.03-28.66Q133-29.81 137.28-29.81L137.28-29.81L137.28-29.81Q138.56-29.81 139.28-28.94L139.28-28.94L139.28-28.94Q139.53-28.63 139.98-27.58L139.98-27.58L139.98-27.58Q140.44-26.53 140.59-26.53L140.59-26.53L140.59-26.53Q141.19-26.56 142.44-27.38L142.44-27.38L142.44-27.38Q146.75-30.28 150.25-30.28L150.25-30.28L150.31-30.28L151.31-30.28L151.31-30.28Q153.84-30.28 155.88-29.03L155.88-29.03L155.88-29.03Q157.91-27.78 159.02-25.28L159.02-25.28L159.02-25.28Q160.13-22.78 160.13-14.39L160.13-14.39L160.13-14.39Q160.13-6 160.48-5.02L160.48-5.02L160.48-5.02Q160.84-4.03 162.52-3.19L162.52-3.19L162.52-3.19Q164.19-2.34 164.19-1.53L164.19-1.53L164.19-1.53Q164.19-0.13 155.31-0.13L155.31-0.13L154.38-0.13L154.38-0.13Q151.56-0.13 151.56-1.47L151.56-1.47L151.56-1.47Q151.56-1.75 152.25-2.83L152.25-2.83L152.25-2.83Q152.94-3.91 153.19-5.22L153.19-5.22L153.19-5.22Q153.44-6.53 153.44-13.86L153.44-13.86L153.44-13.86Q153.44-21.19 152.53-23.28L152.53-23.28L152.53-23.28Q151.28-26.16 148.38-26.16L148.38-26.16L148.38-26.16Q146.25-26.16 144.27-25.17L144.27-25.17L144.27-25.17Q142.28-24.19 141.39-22.39L141.39-22.39L141.39-22.39Q140.50-20.59 140.50-13.80L140.50-13.80L140.50-13.80Q140.50-7 140.88-5.58L140.88-5.58L140.88-5.58Q141.25-4.16 141.78-3.28L141.78-3.28L142.94-1.41L142.94-1.41Q142.94-0.19 138.03-0.19L138.03-0.19L136.13-0.25ZM200.09-3.42L200.09-3.42L200.09-3.42Q201.47-2.34 201.47-1.89L201.47-1.89L201.47-1.89Q201.47-1.44 201-1.03L201-1.03L201-1.03Q199.66 0.19 195.25 0.19L195.25 0.19L195.25 0.19Q193.81 0.19 193.02-0.30L193.02-0.30L193.02-0.30Q192.22-0.78 191.61-2.06L191.61-2.06L191.61-2.06Q191-3.34 190.59-3.34L190.59-3.34L190.59-3.34Q190.19-3.31 188.78-2.31L188.78-2.31L188.78-2.31Q184.84 0.53 181.25 0.53L181.25 0.53L181.25 0.53Q181.22 0.53 181.16 0.53L181.16 0.53L180.22 0.53L180.22 0.53Q175.06 0.53 172.75-3.84L172.75-3.84L172.75-3.84Q171.56-6.13 171.55-15.02L171.55-15.02L171.55-15.02Q171.53-23.91 171.25-24.80L171.25-24.80L171.25-24.80Q170.97-25.69 169.27-26.48L169.27-26.48L169.27-26.48Q167.56-27.28 167.56-27.72L167.56-27.72L167.56-27.72Q167.56-28.88 168.66-29.22L168.66-29.22L168.66-29.22Q171.09-30 174.88-30L174.88-30L174.88-30Q177.06-30 177.66-28.22L177.66-28.22L177.66-28.22Q178.44-25.94 178.44-17.33L178.44-17.33L178.44-17.33Q178.44-8.72 179.19-6.88L179.19-6.88L179.19-6.88Q180.47-3.72 183.84-3.72L183.84-3.72L183.84-3.72Q185.59-3.72 187.33-4.63L187.33-4.63L187.33-4.63Q189.06-5.53 190.03-7.06L190.03-7.06L190.03-7.06Q191-8.59 191-15.48L191-15.48L191-15.48Q191-22.38 190.55-24.16L190.55-24.16L190.55-24.16Q190.09-25.94 189.16-26.95L189.16-26.95L189.16-26.95Q188.22-27.97 188.22-28.56L188.22-28.56L188.22-28.56Q188.22-29.94 195.56-29.94L195.56-29.94L195.56-29.94Q197.09-29.94 197.56-29.27L197.56-29.27L197.56-29.27Q198.03-28.59 198.03-26.81L198.03-26.81L197.94-24.97L197.78-16.66L197.78-16.66Q197.78-8.53 198.25-6.52L198.25-6.52L198.25-6.52Q198.72-4.50 200.09-3.42ZM229.05-5.86L229.05-5.86L229.05-5.86Q229.28-7.06 229.28-14.19L229.28-14.19L229.28-14.19Q229.28-21.31 228.19-23.50L228.19-23.50L228.19-23.50Q227.09-25.69 224.13-25.69L224.13-25.69L224.13-25.69Q222.34-25.69 220.44-24.30L220.44-24.30L220.44-24.30Q218.53-22.91 217.91-21.22L217.91-21.22L217.91-21.22Q217.28-19.53 217.28-13.36L217.28-13.36L217.28-13.36Q217.28-7.19 217.39-5.75L217.39-5.75L217.39-5.75Q217.50-4.31 217.84-3.50L217.84-3.50L218.25-2.72L218.25-2.72Q218.75-1.75 218.75-1.31L218.75-1.31L218.75-1.31Q218.75-0.16 213.97-0.16L213.97-0.16L213.97-0.16Q209.19-0.16 207.75-1.13L207.75-1.13L207.19-1.72L207.19-1.72Q207.19-2.59 207.81-3.22L207.81-3.22L207.81-3.22Q209.69-5.13 210.03-6.13L210.03-6.13L210.03-6.13Q210.38-7.13 210.38-14.98L210.38-14.98L210.38-14.98Q210.38-22.84 209.03-25.25L209.03-25.25L208.38-26.09L208.38-26.09Q207.56-27.13 207.56-27.67L207.56-27.67L207.56-27.67Q207.56-28.22 208.73-28.95L208.73-28.95L208.73-28.95Q209.91-29.69 212.39-29.69L212.39-29.69L212.39-29.69Q214.88-29.69 216.13-28.36L216.13-28.36L216.13-28.36Q217.38-27.03 217.91-27.03L217.91-27.03L218.84-27.47L221.22-28.88L221.22-28.88Q224.13-30.41 227.13-30.41L227.13-30.41L227.13-30.41Q230.13-30.41 232.84-28.58L232.84-28.58L232.84-28.58Q235.56-26.75 236.25-26.75L236.25-26.75L237.31-27.25L238.47-27.94L238.47-27.94Q239.94-28.81 241.63-29.50L241.63-29.50L241.63-29.50Q243.25-30.19 245.94-30.19L245.94-30.19L245.94-30.19Q251.06-30.19 253.19-25.94L253.19-25.94L253.19-25.94Q254.75-22.81 254.75-11.31L254.75-11.31L254.75-11.31Q254.75-6.38 255.06-5.58L255.06-5.58L255.06-5.58Q255.38-4.78 256.75-3.66L256.75-3.66L256.75-3.66Q258.13-2.53 258.13-2.34L258.13-2.34L258.13-1.59L257.53-1.03L257.53-1.03Q256.03-0.13 249.91-0.13L249.91-0.13L249.91-0.13Q246.97-0.13 246.97-1.56L246.97-1.56L246.97-1.56Q246.97-1.72 247.39-2.97L247.39-2.97L247.39-2.97Q247.81-4.22 247.89-4.98L247.89-4.98L247.89-4.98Q247.97-5.75 247.97-12.94L247.97-12.94L247.97-12.94Q247.97-20.13 247.27-21.95L247.27-21.95L247.27-21.95Q246.56-23.78 245.52-24.77L245.52-24.77L245.52-24.77Q244.47-25.75 242.34-25.75L242.34-25.75L242.34-25.75Q240.22-25.75 238.75-24.59L238.75-24.59L238.75-24.59Q237.28-23.44 236.69-22.02L236.69-22.02L236.69-22.02Q236.09-20.59 236.09-13.44L236.09-13.44L236.09-13.44Q236.09-6.28 236.53-5.17L236.53-5.17L236.53-5.17Q236.97-4.06 238.17-3L238.17-3L238.17-3Q239.38-1.94 239.38-1.59L239.38-1.59L239.38-1.59Q239.38-0.03 233.91-0.03L233.91-0.03L229.53-0.03L229.53-0.03Q226.25-0.03 226.25-0.98L226.25-0.98L226.25-0.98Q226.25-1.94 227.06-2.81L227.06-2.81L227.06-2.81Q228.81-4.66 229.05-5.86ZM301.28-43.81L301.28-43.81L301.28-43.81Q310.22-43.81 314.16-42.34L314.16-42.34L314.16-42.34Q315.03-42.03 315.84-40.88L315.84-40.88L315.84-40.88Q316.66-39.72 316.66-36.88L316.66-36.88L316.66-36.88Q316.66-34.03 315.63-33.16L315.63-33.16L315-32.81L315-32.81Q314.16-32.81 312.22-35L312.22-35L312.22-35Q307.72-40 301.41-40L301.41-40L301.41-40Q295.13-40 291.34-35.09L291.34-35.09L291.34-35.09Q287.59-30.19 287.59-22.03L287.59-22.03L287.59-22.03Q287.59-13.91 291.53-8.78L291.53-8.78L291.53-8.78Q295.47-3.63 301.88-3.63L301.88-3.63L301.88-3.63Q306.03-3.63 307.91-5.38L307.91-5.38L307.91-5.38Q309.78-7.13 309.78-12.31L309.78-12.31L309.78-12.31Q309.78-14.31 308.84-15.81L308.84-15.81L308.84-15.81Q308.59-16.22 307.61-17.17L307.61-17.17L307.61-17.17Q306.63-18.13 306.63-18.38L306.63-18.38L306.63-18.38Q306.63-19.72 312.78-19.72L312.78-19.72L312.78-19.72Q316.72-19.72 318-19.30L318-19.30L318-19.30Q319.28-18.88 319.28-17.72L319.28-17.72L319.28-17.72Q319.28-17.50 318.47-16.30L318.47-16.30L318.47-16.30Q317.66-15.09 317.53-14.69L317.53-14.69L317.53-14.69Q317.41-14.28 317.02-9.33L317.02-9.33L317.02-9.33Q316.63-4.38 315.92-3.38L315.92-3.38L315.92-3.38Q315.22-2.38 312.44-1.53L312.44-1.53L312.44-1.53Q305.34 0.66 301.97 0.66L301.97 0.66L300.72 0.66L300.72 0.66Q296.34 0.66 292.47-0.86L292.47-0.86L292.47-0.86Q288.59-2.38 285.88-5.09L285.88-5.09L285.88-5.09Q283.16-7.81 281.50-12.09L281.50-12.09L281.50-12.09Q279.84-16.38 279.84-20.88L279.84-20.88L279.84-22.22L279.84-22.22Q279.84-26.63 281.59-30.94L281.59-30.94L281.59-30.94Q284.88-39 292.53-42.09L292.53-42.09L292.53-42.09Q296.78-43.81 301.28-43.81ZM325.25-1.09L325.25-1.09L325.25-1.09Q325.25-1.75 326.67-2.78L326.67-2.78L326.67-2.78Q328.09-3.81 328.59-6.02L328.59-6.02L328.59-6.02Q329.09-8.22 329.09-22.75L329.09-22.75L329.09-22.75Q329.09-37.28 328.77-39.22L328.77-39.22L328.77-39.22Q328.44-41.16 327.16-42L327.16-42L327.16-42Q325.09-43.34 325.09-43.66L325.09-43.66L325.09-44.03L325.09-44.03Q325.09-44.56 326-44.97L326-44.97L326-44.97Q328.81-46.19 333.50-46.19L333.50-46.19L334.13-46.19L334.13-46.19Q335.72-46.19 335.97-44.03L335.97-44.03L335.97-44.03Q336-43.75 336-39.31L336-39.31L336-32.59L335.97-31.31L335.97-29.34L335.94-28.06L335.94-28.06Q335.94-28.06 335.94-18.16L335.94-18.16L335.94-18.16Q335.94-8.91 336.23-6.70L336.23-6.70L336.23-6.70Q336.53-4.50 337.63-3.50L337.63-3.50L337.63-3.50Q337.75-3.41 338.94-2.69L338.94-2.69L338.94-2.69Q340.13-1.97 340.13-1.22L340.13-1.22L340.13-1.22Q340.13-0.13 336.25-0.13L336.25-0.13L334.97-0.06L333.69-0.06L328.56 0.03L327.91 0.03L327.91 0.03Q325.25 0.03 325.25-1.09ZM351.69-16.09L351.69-16.09L351.69-14.94L351.69-14.94Q351.69-9.63 353.75-6.13L353.75-6.13L353.75-6.13Q354.72-4.47 356.22-3.50L356.22-3.50L356.22-3.50Q357.72-2.53 359.25-2.53L359.25-2.53L359.88-2.53L359.88-2.53Q362.72-2.53 364.80-5.30L364.80-5.30L364.80-5.30Q366.88-8.06 366.88-13.16L366.88-13.16L366.88-15.38L366.88-15.38Q366.88-20.41 364.80-23.92L364.80-23.92L364.80-23.92Q362.72-27.44 359.53-27.44L359.53-27.44L358.56-27.44L358.56-27.44Q355.69-27.44 353.69-24.34L353.69-24.34L353.69-24.34Q351.69-21.25 351.69-16.09ZM374.41-15.97L374.41-15.97L374.41-14.41L374.41-14.41Q374.41-11.94 373.41-9L373.41-9L373.41-9Q371.31-2.88 365.06-0.44L365.06-0.44L365.06-0.44Q362.34 0.63 359.81 0.63L359.81 0.63L358.78 0.63L358.78 0.63Q352.81 0.63 348.81-3.38L348.81-3.38L348.81-3.38Q347-5.19 345.88-8.16L345.88-8.16L345.88-8.16Q344.75-11.13 344.75-14.47L344.75-14.47L344.75-15L344.75-15Q344.75-18.03 345.81-21.13L345.81-21.13L345.81-21.13Q347.88-27.16 353.91-29.50L353.91-29.50L353.91-29.50Q356.63-30.56 359.13-30.56L359.13-30.56L360.69-30.56L360.69-30.56Q363.47-30.56 366.16-29.31L366.16-29.31L366.16-29.31Q371.25-26.94 373.25-21.75L373.25-21.75L373.25-21.75Q374.41-18.69 374.41-15.97ZM396.50-26.63L396.50-26.63L395.59-26.63L395.59-26.63Q393.94-26.63 392.36-25.70L392.36-25.70L392.36-25.70Q390.78-24.78 389.92-23.44L389.92-23.44L389.92-23.44Q389.06-22.09 389.06-15.75L389.06-15.75L389.06-10.78L389.06-10.78Q389.06-6.16 390.47-4.39L390.47-4.39L390.47-4.39Q391.88-2.63 395.31-2.63L395.31-2.63L395.97-2.63L395.97-2.63Q399.28-2.63 401.31-5.77L401.31-5.77L401.31-5.77Q403.34-8.91 403.34-12.91L403.34-12.91L403.41-13.63L403.41-15.84L403.41-15.84Q403.41-20.44 401.41-23.53L401.41-23.53L401.41-23.53Q399.41-26.63 396.50-26.63ZM381.94-3.72L381.94-3.72L381.94-3.72Q381.94-4.06 382.30-6.88L382.30-6.88L382.30-6.88Q382.66-9.69 382.66-13.69L382.66-13.69L382.66-22.69L382.69-24.22L382.69-30.47L382.66-32L382.66-33.53L382.63-34.28L382.63-34.28Q382.59-35.06 382.59-36.88L382.59-36.88L382.59-36.88Q382.59-40.59 380.61-41.53L380.61-41.53L380.61-41.53Q378.63-42.47 378.63-43.34L378.63-43.34L378.63-43.34Q378.63-44 379.53-44.44L379.53-44.44L379.53-44.44Q381.78-45.53 386.44-45.53L386.44-45.53L386.44-45.53Q388.31-45.53 388.84-43.41L388.84-43.41L388.84-43.41Q389.16-42.19 389.16-34.94L389.16-34.94L389.16-34.94Q389.16-27.69 390.31-27.69L390.31-27.69L390.31-27.69Q391.03-27.69 393.50-28.69L393.50-28.69L393.50-28.69Q395.97-29.69 398.66-29.69L398.66-29.69L398.66-29.69Q403.81-29.69 407.20-25.75L407.20-25.75L407.20-25.75Q410.59-21.81 410.59-15.47L410.59-15.47L410.59-14.66L410.59-14.66Q410.59-11.59 409.50-8.72L409.50-8.72L409.50-8.72Q407.34-3.09 402.22-0.81L402.22-0.81L402.22-0.81Q399.47 0.41 396.56 0.41L396.56 0.41L395.81 0.41L395.81 0.41Q394.59 0.41 392.09-0.19L392.09-0.19L392.09-0.19Q389.59-0.78 387.13-0.78L387.13-0.78L384.56-0.56L384.56-0.56Q381.94-0.56 381.94-3.72ZM432.72-14.47L432.72-14.47L432.19-14.47L432.19-14.47Q428.09-14.47 425.36-12.64L425.36-12.64L425.36-12.64Q422.63-10.81 422.63-8.09L422.63-8.09L422.63-7.47L422.63-7.47Q422.63-5.88 423.61-4.61L423.61-4.61L423.61-4.61Q424.59-3.34 426.16-3.34L426.16-3.34L426.53-3.28L427.47-3.28L427.47-3.28Q430.72-3.28 432.78-5.94L432.78-5.94L432.78-5.94Q433.69-7.09 433.69-10.69L433.69-10.69L433.69-10.69Q433.69-10.97 433.69-11.25L433.69-11.25L433.72-12L433.72-12.75L433.72-12.75Q433.72-14.47 432.72-14.47ZM417.53-24.56L417.53-24.56L417.53-24.56Q417.53-26.88 421.20-28.70L421.20-28.70L421.20-28.70Q424.88-30.53 428.81-30.53L428.81-30.53L428.81-30.53Q428.94-30.53 429.06-30.53L429.06-30.53L429.06-30.53Q432.81-30.53 435.06-29.63L435.06-29.63L435.06-29.63Q439.63-27.81 440.28-21.94L440.28-21.94L440.28-21.94Q440.34-21.34 440.34-14.08L440.34-14.08L440.34-14.08Q440.34-6.81 440.73-5.56L440.73-5.56L440.73-5.56Q441.13-4.31 442.86-3.72L442.86-3.72L442.86-3.72Q444.59-3.13 444.59-2.59L444.59-2.59L444.59-2.59Q444.59-1.47 443.47-0.88L443.47-0.88L443.47-0.88Q441.22 0.31 439.05 0.31L439.05 0.31L439.05 0.31Q436.88 0.31 435.81-0.69L435.81-0.69L435.81-0.69Q433.91-2.47 433.78-2.47L433.78-2.47L433.78-2.47Q433.66-2.47 430.25-0.89L430.25-0.89L430.25-0.89Q426.84 0.69 424.28 0.69L424.28 0.69L424.28 0.69Q420.44 0.69 418.25-1.44L418.25-1.44L418.25-1.44Q416.06-3.56 416.06-6.59L416.06-6.59L416.06-7.38L416.06-7.38Q416.06-10.63 418.88-13.09L418.88-13.09L418.88-13.09Q421.69-15.56 429-16.94L429-16.94L429-16.94Q431.66-17.44 432.34-17.88L432.34-17.88L432.34-17.88Q433.72-18.75 433.72-21.44L433.72-21.44L433.72-21.44Q433.72-24.13 432.28-25.56L432.28-25.56L432.28-25.56Q430.84-27 428.44-27L428.44-27L428.44-27Q426.03-27 423.80-24.20L423.80-24.20L423.80-24.20Q421.56-21.41 419.72-21.41L419.72-21.41L419.72-21.41Q417.53-21.41 417.53-24.56ZM449.44-1.09L449.44-1.09L449.44-1.09Q449.44-1.75 450.86-2.78L450.86-2.78L450.86-2.78Q452.28-3.81 452.78-6.02L452.78-6.02L452.78-6.02Q453.28-8.22 453.28-22.75L453.28-22.75L453.28-22.75Q453.28-37.28 452.95-39.22L452.95-39.22L452.95-39.22Q452.63-41.16 451.34-42L451.34-42L451.34-42Q449.28-43.34 449.28-43.66L449.28-43.66L449.28-44.03L449.28-44.03Q449.28-44.56 450.19-44.97L450.19-44.97L450.19-44.97Q453-46.19 457.69-46.19L457.69-46.19L458.31-46.19L458.31-46.19Q459.91-46.19 460.16-44.03L460.16-44.03L460.16-44.03Q460.19-43.75 460.19-39.31L460.19-39.31L460.19-32.59L460.16-31.31L460.16-29.34L460.13-28.06L460.13-28.06Q460.13-28.06 460.13-18.16L460.13-18.16L460.13-18.16Q460.13-8.91 460.42-6.70L460.42-6.70L460.42-6.70Q460.72-4.50 461.81-3.50L461.81-3.50L461.81-3.50Q461.94-3.41 463.13-2.69L463.13-2.69L463.13-2.69Q464.31-1.97 464.31-1.22L464.31-1.22L464.31-1.22Q464.31-0.13 460.44-0.13L460.44-0.13L459.16-0.06L457.88-0.06L452.75 0.03L452.09 0.03L452.09 0.03Q449.44 0.03 449.44-1.09Z" fill="#828282"></path>
    </g>
  </g>
  <style>text {
  font-size: 64px;
  font-family: Arial Black;
  dominant-baseline: central;
  text-anchor: middle;
}</style>
</svg>
